<svg xmlns="http://www.w3.org/2000/svg" width="32" height="32" fill="none" viewBox="0 0 32 32"><g clip-path="url(#a)"><path fill="#494434" d="M29.217 25.044v4.69l-4.87-.517-3.477-5.565-4.174-6.26-4.87-4.175v-3.13a3.826 3.826 0 0 1 3.826-3.826c.769 0 1.391.623 1.391 1.391v3.478h2.435a2.783 2.783 0 0 1 2.783 2.783v3.478h1.391c1.153 0 2.087.935 2.087 2.087v4.174h2.087c.768 0 1.391.623 1.391 1.392Z"/><path fill="#776F4F" d="M29.217 29.733v-4.69c0-.768-.622-1.39-1.39-1.39h-3.825l.346 5.564 4.87.516Zm-6.956-12.342v-3.478a2.783 2.783 0 0 0-2.783-2.783h-2.435l-.347 6.261h5.565Z"/><path fill="#80995F" d="M32 31.565v.007a.428.428 0 0 1-.428.428H27.13a20.85 20.85 0 0 1-12.521-4.16v2.073A2.087 2.087 0 0 1 12.522 32H5.565a2.087 2.087 0 1 1 0-4.174h4.87v-4.134A20.761 20.761 0 0 1 6.789 16H.696A.696.696 0 0 1 0 15.304c0-1.152.934-2.087 2.087-2.087h4.232a20.7 20.7 0 0 1-.058-.695V6.957H3.993a1.906 1.906 0 0 1-1.24-3.353L5.958.856a3.554 3.554 0 0 1 5.868 2.699v7.622a10.273 10.273 0 0 1 8.19 5.567c2.749 5.39 7.273 12.93 11.697 14.416a.425.425 0 0 1 .287.405Z"/><path fill="#8CAE65" d="M32 31.565v.007a.428.428 0 0 1-.428.428H27.13c-.666 0-1.324-.032-1.975-.093-3.608-2.787-7.058-8.654-9.313-13.076a10.274 10.274 0 0 0-8.19-5.567v-.047H6.32c-.023-.23-.043-.462-.058-.695V6.957H3.993a1.906 1.906 0 0 1-1.24-3.353L5.958.855a3.554 3.554 0 0 1 5.868 2.699v7.622a10.273 10.273 0 0 1 8.19 5.567c2.749 5.39 7.273 12.93 11.697 14.416a.425.425 0 0 1 .287.405Z"/><path fill="#4C443B" d="M9.043 2.643v.14a.696.696 0 0 1-1.39 0v-.14a.696.696 0 1 1 1.39 0Z"/></g><defs><clipPath id="a"><path fill="#fff" d="M0 0h32v32H0z"/></clipPath></defs></svg>